<mxfile host="app.diagrams.net" modified="2020-05-03T01:01:27.091Z" agent="5.0 (Windows NT 10.0; Win64; x64) AppleWebKit/537.36 (KHTML, like Gecko) Chrome/81.0.4044.129 Safari/537.36" etag="Wd6V5lm8afI8RH8uWKPV" version="13.0.5" type="github">
  <diagram id="h3Ek2yhjag-Ijy3UuA3x" name="Page-1">
    <mxGraphModel dx="11422" dy="762" grid="1" gridSize="10" guides="1" tooltips="1" connect="1" arrows="1" fold="1" page="1" pageScale="1" pageWidth="10000" pageHeight="10000" math="0" shadow="0">
      <root>
        <mxCell id="0" />
        <mxCell id="1" parent="0" />
        <mxCell id="AJkytsJuZ1-eA44GaWmQ-24" value="module" style="swimlane;fontStyle=1;align=center;verticalAlign=top;childLayout=stackLayout;horizontal=1;startSize=26;horizontalStack=0;resizeParent=1;resizeParentMax=0;resizeLast=0;collapsible=1;marginBottom=0;" parent="1" vertex="1">
          <mxGeometry x="490" y="40" width="280" height="164" as="geometry" />
        </mxCell>
        <mxCell id="AJkytsJuZ1-eA44GaWmQ-25" value="- uniqueIdentifier: int" style="text;strokeColor=none;fillColor=none;align=left;verticalAlign=top;spacingLeft=4;spacingRight=4;overflow=hidden;rotatable=0;points=[[0,0.5],[1,0.5]];portConstraint=eastwest;" parent="AJkytsJuZ1-eA44GaWmQ-24" vertex="1">
          <mxGeometry y="26" width="280" height="26" as="geometry" />
        </mxCell>
        <mxCell id="AJkytsJuZ1-eA44GaWmQ-26" value="- name: String" style="text;strokeColor=none;fillColor=none;align=left;verticalAlign=top;spacingLeft=4;spacingRight=4;overflow=hidden;rotatable=0;points=[[0,0.5],[1,0.5]];portConstraint=eastwest;" parent="AJkytsJuZ1-eA44GaWmQ-24" vertex="1">
          <mxGeometry y="52" width="280" height="26" as="geometry" />
        </mxCell>
        <mxCell id="AJkytsJuZ1-eA44GaWmQ-29" value="" style="line;strokeWidth=1;fillColor=none;align=left;verticalAlign=middle;spacingTop=-1;spacingLeft=3;spacingRight=3;rotatable=0;labelPosition=right;points=[];portConstraint=eastwest;" parent="AJkytsJuZ1-eA44GaWmQ-24" vertex="1">
          <mxGeometry y="78" width="280" height="8" as="geometry" />
        </mxCell>
        <mxCell id="AJkytsJuZ1-eA44GaWmQ-30" value="+ getID(): int" style="text;strokeColor=none;fillColor=none;align=left;verticalAlign=top;spacingLeft=4;spacingRight=4;overflow=hidden;rotatable=0;points=[[0,0.5],[1,0.5]];portConstraint=eastwest;" parent="AJkytsJuZ1-eA44GaWmQ-24" vertex="1">
          <mxGeometry y="86" width="280" height="26" as="geometry" />
        </mxCell>
        <mxCell id="AJkytsJuZ1-eA44GaWmQ-31" value="+ setName(String): String" style="text;strokeColor=none;fillColor=none;align=left;verticalAlign=top;spacingLeft=4;spacingRight=4;overflow=hidden;rotatable=0;points=[[0,0.5],[1,0.5]];portConstraint=eastwest;" parent="AJkytsJuZ1-eA44GaWmQ-24" vertex="1">
          <mxGeometry y="112" width="280" height="26" as="geometry" />
        </mxCell>
        <mxCell id="AJkytsJuZ1-eA44GaWmQ-32" value="+ getName(): String" style="text;strokeColor=none;fillColor=none;align=left;verticalAlign=top;spacingLeft=4;spacingRight=4;overflow=hidden;rotatable=0;points=[[0,0.5],[1,0.5]];portConstraint=eastwest;" parent="AJkytsJuZ1-eA44GaWmQ-24" vertex="1">
          <mxGeometry y="138" width="280" height="26" as="geometry" />
        </mxCell>
        <mxCell id="AJkytsJuZ1-eA44GaWmQ-47" style="edgeStyle=orthogonalEdgeStyle;rounded=0;orthogonalLoop=1;jettySize=auto;html=1;entryX=0.143;entryY=0.974;entryDx=0;entryDy=0;entryPerimeter=0;" parent="1" source="rIIZ6E1I2lcJWbTjNb9e-1" target="AJkytsJuZ1-eA44GaWmQ-32" edge="1">
          <mxGeometry relative="1" as="geometry" />
        </mxCell>
        <mxCell id="AJkytsJuZ1-eA44GaWmQ-132" style="rounded=0;orthogonalLoop=1;jettySize=auto;html=1;edgeStyle=elbowEdgeStyle;elbow=vertical;" parent="1" source="AJkytsJuZ1-eA44GaWmQ-66" target="AJkytsJuZ1-eA44GaWmQ-32" edge="1">
          <mxGeometry relative="1" as="geometry">
            <Array as="points">
              <mxPoint x="550" y="220" />
            </Array>
          </mxGeometry>
        </mxCell>
        <mxCell id="rIIZ6E1I2lcJWbTjNb9e-1" value="Deliverable" style="swimlane;fontStyle=1;align=center;verticalAlign=top;childLayout=stackLayout;horizontal=1;startSize=26;horizontalStack=0;resizeParent=1;resizeParentMax=0;resizeLast=0;collapsible=1;marginBottom=0;" parent="1" vertex="1">
          <mxGeometry x="90" y="260" width="290" height="450" as="geometry" />
        </mxCell>
        <mxCell id="rIIZ6E1I2lcJWbTjNb9e-6" value="- description: String" style="text;strokeColor=none;fillColor=none;align=left;verticalAlign=top;spacingLeft=4;spacingRight=4;overflow=hidden;rotatable=0;points=[[0,0.5],[1,0.5]];portConstraint=eastwest;" parent="rIIZ6E1I2lcJWbTjNb9e-1" vertex="1">
          <mxGeometry y="26" width="290" height="26" as="geometry" />
        </mxCell>
        <mxCell id="rIIZ6E1I2lcJWbTjNb9e-7" value="- dueDate: Date" style="text;strokeColor=none;fillColor=none;align=left;verticalAlign=top;spacingLeft=4;spacingRight=4;overflow=hidden;rotatable=0;points=[[0,0.5],[1,0.5]];portConstraint=eastwest;" parent="rIIZ6E1I2lcJWbTjNb9e-1" vertex="1">
          <mxGeometry y="52" width="290" height="26" as="geometry" />
        </mxCell>
        <mxCell id="rIIZ6E1I2lcJWbTjNb9e-3" value="" style="line;strokeWidth=1;fillColor=none;align=left;verticalAlign=middle;spacingTop=-1;spacingLeft=3;spacingRight=3;rotatable=0;labelPosition=right;points=[];portConstraint=eastwest;" parent="rIIZ6E1I2lcJWbTjNb9e-1" vertex="1">
          <mxGeometry y="78" width="290" height="8" as="geometry" />
        </mxCell>
        <mxCell id="rIIZ6E1I2lcJWbTjNb9e-20" value="+ setDescription(String): void" style="text;strokeColor=none;fillColor=none;align=left;verticalAlign=top;spacingLeft=4;spacingRight=4;overflow=hidden;rotatable=0;points=[[0,0.5],[1,0.5]];portConstraint=eastwest;" parent="rIIZ6E1I2lcJWbTjNb9e-1" vertex="1">
          <mxGeometry y="86" width="290" height="26" as="geometry" />
        </mxCell>
        <mxCell id="rIIZ6E1I2lcJWbTjNb9e-13" value="+ getDescription(): String" style="text;strokeColor=none;fillColor=none;align=left;verticalAlign=top;spacingLeft=4;spacingRight=4;overflow=hidden;rotatable=0;points=[[0,0.5],[1,0.5]];portConstraint=eastwest;" parent="rIIZ6E1I2lcJWbTjNb9e-1" vertex="1">
          <mxGeometry y="112" width="290" height="26" as="geometry" />
        </mxCell>
        <mxCell id="rIIZ6E1I2lcJWbTjNb9e-21" value="+ setDueDate(Date): void" style="text;strokeColor=none;fillColor=none;align=left;verticalAlign=top;spacingLeft=4;spacingRight=4;overflow=hidden;rotatable=0;points=[[0,0.5],[1,0.5]];portConstraint=eastwest;" parent="rIIZ6E1I2lcJWbTjNb9e-1" vertex="1">
          <mxGeometry y="138" width="290" height="26" as="geometry" />
        </mxCell>
        <mxCell id="rIIZ6E1I2lcJWbTjNb9e-14" value="+ getDueDate(): Date" style="text;strokeColor=none;fillColor=none;align=left;verticalAlign=top;spacingLeft=4;spacingRight=4;overflow=hidden;rotatable=0;points=[[0,0.5],[1,0.5]];portConstraint=eastwest;" parent="rIIZ6E1I2lcJWbTjNb9e-1" vertex="1">
          <mxGeometry y="164" width="290" height="26" as="geometry" />
        </mxCell>
        <mxCell id="rIIZ6E1I2lcJWbTjNb9e-15" value="+ createDeliverable(Deliverable): boolean" style="text;strokeColor=none;fillColor=none;align=left;verticalAlign=top;spacingLeft=4;spacingRight=4;overflow=hidden;rotatable=0;points=[[0,0.5],[1,0.5]];portConstraint=eastwest;fontStyle=4" parent="rIIZ6E1I2lcJWbTjNb9e-1" vertex="1">
          <mxGeometry y="190" width="290" height="26" as="geometry" />
        </mxCell>
        <mxCell id="rIIZ6E1I2lcJWbTjNb9e-17" value="+ updateDeliverable(Deliverable): boolean" style="text;strokeColor=none;fillColor=none;align=left;verticalAlign=top;spacingLeft=4;spacingRight=4;overflow=hidden;rotatable=0;points=[[0,0.5],[1,0.5]];portConstraint=eastwest;fontStyle=4" parent="rIIZ6E1I2lcJWbTjNb9e-1" vertex="1">
          <mxGeometry y="216" width="290" height="26" as="geometry" />
        </mxCell>
        <mxCell id="rIIZ6E1I2lcJWbTjNb9e-22" value="+ saveDeliverable(Deliverable, int[], int[]): boolean" style="text;strokeColor=none;fillColor=none;align=left;verticalAlign=top;spacingLeft=4;spacingRight=4;overflow=hidden;rotatable=0;points=[[0,0.5],[1,0.5]];portConstraint=eastwest;fontStyle=4" parent="rIIZ6E1I2lcJWbTjNb9e-1" vertex="1">
          <mxGeometry y="242" width="290" height="26" as="geometry" />
        </mxCell>
        <mxCell id="rIIZ6E1I2lcJWbTjNb9e-24" value="+ deleteDeliverable(int): boolean" style="text;strokeColor=none;fillColor=none;align=left;verticalAlign=top;spacingLeft=4;spacingRight=4;overflow=hidden;rotatable=0;points=[[0,0.5],[1,0.5]];portConstraint=eastwest;fontStyle=4" parent="rIIZ6E1I2lcJWbTjNb9e-1" vertex="1">
          <mxGeometry y="268" width="290" height="26" as="geometry" />
        </mxCell>
        <mxCell id="AJkytsJuZ1-eA44GaWmQ-18" value="+ updateAssociatedTasks(int,int[]): boolean" style="text;strokeColor=none;fillColor=none;align=left;verticalAlign=top;spacingLeft=4;spacingRight=4;overflow=hidden;rotatable=0;points=[[0,0.5],[1,0.5]];portConstraint=eastwest;fontStyle=4" parent="rIIZ6E1I2lcJWbTjNb9e-1" vertex="1">
          <mxGeometry y="294" width="290" height="26" as="geometry" />
        </mxCell>
        <mxCell id="AJkytsJuZ1-eA44GaWmQ-19" value="+ updateAssociatedRequirements(int,int[]): boolean" style="text;strokeColor=none;fillColor=none;align=left;verticalAlign=top;spacingLeft=4;spacingRight=4;overflow=hidden;rotatable=0;points=[[0,0.5],[1,0.5]];portConstraint=eastwest;fontStyle=4" parent="rIIZ6E1I2lcJWbTjNb9e-1" vertex="1">
          <mxGeometry y="320" width="290" height="26" as="geometry" />
        </mxCell>
        <mxCell id="AJkytsJuZ1-eA44GaWmQ-20" value="+ addAssociatedTasks(int,int[]): boolean" style="text;strokeColor=none;fillColor=none;align=left;verticalAlign=top;spacingLeft=4;spacingRight=4;overflow=hidden;rotatable=0;points=[[0,0.5],[1,0.5]];portConstraint=eastwest;fontStyle=4" parent="rIIZ6E1I2lcJWbTjNb9e-1" vertex="1">
          <mxGeometry y="346" width="290" height="26" as="geometry" />
        </mxCell>
        <mxCell id="AJkytsJuZ1-eA44GaWmQ-21" value="+ addAssociatedRequirements(int,int[]): boolean" style="text;strokeColor=none;fillColor=none;align=left;verticalAlign=top;spacingLeft=4;spacingRight=4;overflow=hidden;rotatable=0;points=[[0,0.5],[1,0.5]];portConstraint=eastwest;fontStyle=4" parent="rIIZ6E1I2lcJWbTjNb9e-1" vertex="1">
          <mxGeometry y="372" width="290" height="26" as="geometry" />
        </mxCell>
        <mxCell id="AJkytsJuZ1-eA44GaWmQ-22" value="+ getDeliverables(int): Deliverable" style="text;strokeColor=none;fillColor=none;align=left;verticalAlign=top;spacingLeft=4;spacingRight=4;overflow=hidden;rotatable=0;points=[[0,0.5],[1,0.5]];portConstraint=eastwest;fontStyle=4" parent="rIIZ6E1I2lcJWbTjNb9e-1" vertex="1">
          <mxGeometry y="398" width="290" height="26" as="geometry" />
        </mxCell>
        <mxCell id="AJkytsJuZ1-eA44GaWmQ-23" value="+ getDeliverable(): Deliverable[]" style="text;strokeColor=none;fillColor=none;align=left;verticalAlign=top;spacingLeft=4;spacingRight=4;overflow=hidden;rotatable=0;points=[[0,0.5],[1,0.5]];portConstraint=eastwest;fontStyle=4" parent="rIIZ6E1I2lcJWbTjNb9e-1" vertex="1">
          <mxGeometry y="424" width="290" height="26" as="geometry" />
        </mxCell>
        <mxCell id="oW8NMeTdjoWrqpmzOP1x-64" style="edgeStyle=elbowEdgeStyle;rounded=0;orthogonalLoop=1;jettySize=auto;elbow=vertical;html=1;entryX=0.964;entryY=0.972;entryDx=0;entryDy=0;entryPerimeter=0;" parent="1" source="oW8NMeTdjoWrqpmzOP1x-33" target="AJkytsJuZ1-eA44GaWmQ-32" edge="1">
          <mxGeometry relative="1" as="geometry">
            <mxPoint x="760" y="207" as="targetPoint" />
          </mxGeometry>
        </mxCell>
        <mxCell id="oW8NMeTdjoWrqpmzOP1x-143" style="edgeStyle=elbowEdgeStyle;rounded=0;orthogonalLoop=1;jettySize=auto;elbow=vertical;html=1;entryX=0.033;entryY=1.071;entryDx=0;entryDy=0;entryPerimeter=0;" parent="1" source="oW8NMeTdjoWrqpmzOP1x-125" target="AJkytsJuZ1-eA44GaWmQ-32" edge="1">
          <mxGeometry relative="1" as="geometry">
            <mxPoint x="420" y="200" as="targetPoint" />
            <Array as="points">
              <mxPoint x="510" y="220" />
            </Array>
          </mxGeometry>
        </mxCell>
        <mxCell id="oW8NMeTdjoWrqpmzOP1x-125" value="Requirement" style="swimlane;fontStyle=1;align=center;verticalAlign=top;childLayout=stackLayout;horizontal=1;startSize=26;horizontalStack=0;resizeParent=1;resizeParentMax=0;resizeLast=0;collapsible=1;marginBottom=0;" parent="1" vertex="1">
          <mxGeometry x="-220" y="260" width="290" height="216" as="geometry" />
        </mxCell>
        <mxCell id="oW8NMeTdjoWrqpmzOP1x-127" value="- deliverableID: int" style="text;strokeColor=none;fillColor=none;align=left;verticalAlign=top;spacingLeft=4;spacingRight=4;overflow=hidden;rotatable=0;points=[[0,0.5],[1,0.5]];portConstraint=eastwest;" parent="oW8NMeTdjoWrqpmzOP1x-125" vertex="1">
          <mxGeometry y="26" width="290" height="26" as="geometry" />
        </mxCell>
        <mxCell id="oW8NMeTdjoWrqpmzOP1x-128" value="" style="line;strokeWidth=1;fillColor=none;align=left;verticalAlign=middle;spacingTop=-1;spacingLeft=3;spacingRight=3;rotatable=0;labelPosition=right;points=[];portConstraint=eastwest;" parent="oW8NMeTdjoWrqpmzOP1x-125" vertex="1">
          <mxGeometry y="52" width="290" height="8" as="geometry" />
        </mxCell>
        <mxCell id="oW8NMeTdjoWrqpmzOP1x-129" value="+ setDeliverableID(int): void" style="text;strokeColor=none;fillColor=none;align=left;verticalAlign=top;spacingLeft=4;spacingRight=4;overflow=hidden;rotatable=0;points=[[0,0.5],[1,0.5]];portConstraint=eastwest;" parent="oW8NMeTdjoWrqpmzOP1x-125" vertex="1">
          <mxGeometry y="60" width="290" height="26" as="geometry" />
        </mxCell>
        <mxCell id="oW8NMeTdjoWrqpmzOP1x-132" value="+ getDeliverableID(): int" style="text;strokeColor=none;fillColor=none;align=left;verticalAlign=top;spacingLeft=4;spacingRight=4;overflow=hidden;rotatable=0;points=[[0,0.5],[1,0.5]];portConstraint=eastwest;" parent="oW8NMeTdjoWrqpmzOP1x-125" vertex="1">
          <mxGeometry y="86" width="290" height="26" as="geometry" />
        </mxCell>
        <mxCell id="oW8NMeTdjoWrqpmzOP1x-145" value="+ createRequirement(Requirement): boolean" style="text;strokeColor=none;fillColor=none;align=left;verticalAlign=top;spacingLeft=4;spacingRight=4;overflow=hidden;rotatable=0;points=[[0,0.5],[1,0.5]];portConstraint=eastwest;fontStyle=4" parent="oW8NMeTdjoWrqpmzOP1x-125" vertex="1">
          <mxGeometry y="112" width="290" height="26" as="geometry" />
        </mxCell>
        <mxCell id="oW8NMeTdjoWrqpmzOP1x-147" value="+ saveRequirement(Requirement): boolean" style="text;strokeColor=none;fillColor=none;align=left;verticalAlign=top;spacingLeft=4;spacingRight=4;overflow=hidden;rotatable=0;points=[[0,0.5],[1,0.5]];portConstraint=eastwest;fontStyle=4" parent="oW8NMeTdjoWrqpmzOP1x-125" vertex="1">
          <mxGeometry y="138" width="290" height="26" as="geometry" />
        </mxCell>
        <mxCell id="oW8NMeTdjoWrqpmzOP1x-148" value="+ deleteRequirement(int): boolean" style="text;strokeColor=none;fillColor=none;align=left;verticalAlign=top;spacingLeft=4;spacingRight=4;overflow=hidden;rotatable=0;points=[[0,0.5],[1,0.5]];portConstraint=eastwest;fontStyle=4" parent="oW8NMeTdjoWrqpmzOP1x-125" vertex="1">
          <mxGeometry y="164" width="290" height="26" as="geometry" />
        </mxCell>
        <mxCell id="oW8NMeTdjoWrqpmzOP1x-146" value="+ updateRequirement(Requirement): boolean" style="text;strokeColor=none;fillColor=none;align=left;verticalAlign=top;spacingLeft=4;spacingRight=4;overflow=hidden;rotatable=0;points=[[0,0.5],[1,0.5]];portConstraint=eastwest;fontStyle=4" parent="oW8NMeTdjoWrqpmzOP1x-125" vertex="1">
          <mxGeometry y="190" width="290" height="26" as="geometry" />
        </mxCell>
        <mxCell id="EN4bmFngzURgGS1C15jc-133" style="edgeStyle=orthogonalEdgeStyle;rounded=0;orthogonalLoop=1;jettySize=auto;html=1;entryX=0.822;entryY=1.016;entryDx=0;entryDy=0;entryPerimeter=0;" edge="1" parent="1" source="EN4bmFngzURgGS1C15jc-59" target="AJkytsJuZ1-eA44GaWmQ-32">
          <mxGeometry relative="1" as="geometry" />
        </mxCell>
        <mxCell id="oW8NMeTdjoWrqpmzOP1x-33" value="Decision" style="swimlane;fontStyle=1;align=center;verticalAlign=top;childLayout=stackLayout;horizontal=1;startSize=26;horizontalStack=0;resizeParent=1;resizeParentMax=0;resizeLast=0;collapsible=1;marginBottom=0;" parent="1" vertex="1">
          <mxGeometry x="1650" y="240" width="330" height="1204" as="geometry">
            <mxRectangle x="990" y="260" width="90" height="26" as="alternateBounds" />
          </mxGeometry>
        </mxCell>
        <mxCell id="oW8NMeTdjoWrqpmzOP1x-34" value="- description: String" style="text;strokeColor=none;fillColor=none;align=left;verticalAlign=top;spacingLeft=4;spacingRight=4;overflow=hidden;rotatable=0;points=[[0,0.5],[1,0.5]];portConstraint=eastwest;" parent="oW8NMeTdjoWrqpmzOP1x-33" vertex="1">
          <mxGeometry y="26" width="330" height="26" as="geometry" />
        </mxCell>
        <mxCell id="oW8NMeTdjoWrqpmzOP1x-35" value="- priority: int " style="text;strokeColor=none;fillColor=none;align=left;verticalAlign=top;spacingLeft=4;spacingRight=4;overflow=hidden;rotatable=0;points=[[0,0.5],[1,0.5]];portConstraint=eastwest;" parent="oW8NMeTdjoWrqpmzOP1x-33" vertex="1">
          <mxGeometry y="52" width="330" height="26" as="geometry" />
        </mxCell>
        <mxCell id="oW8NMeTdjoWrqpmzOP1x-36" value="- impact: int" style="text;strokeColor=none;fillColor=none;align=left;verticalAlign=top;spacingLeft=4;spacingRight=4;overflow=hidden;rotatable=0;points=[[0,0.5],[1,0.5]];portConstraint=eastwest;" parent="oW8NMeTdjoWrqpmzOP1x-33" vertex="1">
          <mxGeometry y="78" width="330" height="26" as="geometry" />
        </mxCell>
        <mxCell id="oW8NMeTdjoWrqpmzOP1x-37" value="- dateCreated: Date" style="text;strokeColor=none;fillColor=none;align=left;verticalAlign=top;spacingLeft=4;spacingRight=4;overflow=hidden;rotatable=0;points=[[0,0.5],[1,0.5]];portConstraint=eastwest;" parent="oW8NMeTdjoWrqpmzOP1x-33" vertex="1">
          <mxGeometry y="104" width="330" height="26" as="geometry" />
        </mxCell>
        <mxCell id="oW8NMeTdjoWrqpmzOP1x-38" value="- dateNeeded: Date" style="text;strokeColor=none;fillColor=none;align=left;verticalAlign=top;spacingLeft=4;spacingRight=4;overflow=hidden;rotatable=0;points=[[0,0.5],[1,0.5]];portConstraint=eastwest;" parent="oW8NMeTdjoWrqpmzOP1x-33" vertex="1">
          <mxGeometry y="130" width="330" height="26" as="geometry" />
        </mxCell>
        <mxCell id="oW8NMeTdjoWrqpmzOP1x-39" value="- dateMade: Date" style="text;strokeColor=none;fillColor=none;align=left;verticalAlign=top;spacingLeft=4;spacingRight=4;overflow=hidden;rotatable=0;points=[[0,0.5],[1,0.5]];portConstraint=eastwest;" parent="oW8NMeTdjoWrqpmzOP1x-33" vertex="1">
          <mxGeometry y="156" width="330" height="26" as="geometry" />
        </mxCell>
        <mxCell id="oW8NMeTdjoWrqpmzOP1x-40" value="- expectedCompletionDate: Date&#xa;" style="text;strokeColor=none;fillColor=none;align=left;verticalAlign=top;spacingLeft=4;spacingRight=4;overflow=hidden;rotatable=0;points=[[0,0.5],[1,0.5]];portConstraint=eastwest;" parent="oW8NMeTdjoWrqpmzOP1x-33" vertex="1">
          <mxGeometry y="182" width="330" height="26" as="geometry" />
        </mxCell>
        <mxCell id="oW8NMeTdjoWrqpmzOP1x-41" value="- actualCompletionDate: Date" style="text;strokeColor=none;fillColor=none;align=left;verticalAlign=top;spacingLeft=4;spacingRight=4;overflow=hidden;rotatable=0;points=[[0,0.5],[1,0.5]];portConstraint=eastwest;" parent="oW8NMeTdjoWrqpmzOP1x-33" vertex="1">
          <mxGeometry y="208" width="330" height="26" as="geometry" />
        </mxCell>
        <mxCell id="oW8NMeTdjoWrqpmzOP1x-43" value="- status: int" style="text;strokeColor=none;fillColor=none;align=left;verticalAlign=top;spacingLeft=4;spacingRight=4;overflow=hidden;rotatable=0;points=[[0,0.5],[1,0.5]];portConstraint=eastwest;" parent="oW8NMeTdjoWrqpmzOP1x-33" vertex="1">
          <mxGeometry y="234" width="330" height="26" as="geometry" />
        </mxCell>
        <mxCell id="oW8NMeTdjoWrqpmzOP1x-44" value="- statusDescription: String" style="text;strokeColor=none;fillColor=none;align=left;verticalAlign=top;spacingLeft=4;spacingRight=4;overflow=hidden;rotatable=0;points=[[0,0.5],[1,0.5]];portConstraint=eastwest;" parent="oW8NMeTdjoWrqpmzOP1x-33" vertex="1">
          <mxGeometry y="260" width="330" height="26" as="geometry" />
        </mxCell>
        <mxCell id="oW8NMeTdjoWrqpmzOP1x-45" value="- updateDate: Date" style="text;strokeColor=none;fillColor=none;align=left;verticalAlign=top;spacingLeft=4;spacingRight=4;overflow=hidden;rotatable=0;points=[[0,0.5],[1,0.5]];portConstraint=eastwest;" parent="oW8NMeTdjoWrqpmzOP1x-33" vertex="1">
          <mxGeometry y="286" width="330" height="26" as="geometry" />
        </mxCell>
        <mxCell id="oW8NMeTdjoWrqpmzOP1x-46" value="" style="line;strokeWidth=1;fillColor=none;align=left;verticalAlign=middle;spacingTop=-1;spacingLeft=3;spacingRight=3;rotatable=0;labelPosition=right;points=[];portConstraint=eastwest;" parent="oW8NMeTdjoWrqpmzOP1x-33" vertex="1">
          <mxGeometry y="312" width="330" height="8" as="geometry" />
        </mxCell>
        <mxCell id="oW8NMeTdjoWrqpmzOP1x-49" value="+ setDescription(String): void" style="text;strokeColor=none;fillColor=none;align=left;verticalAlign=top;spacingLeft=4;spacingRight=4;overflow=hidden;rotatable=0;points=[[0,0.5],[1,0.5]];portConstraint=eastwest;" parent="oW8NMeTdjoWrqpmzOP1x-33" vertex="1">
          <mxGeometry y="320" width="330" height="26" as="geometry" />
        </mxCell>
        <mxCell id="oW8NMeTdjoWrqpmzOP1x-50" value="+ getDescription(): String" style="text;strokeColor=none;fillColor=none;align=left;verticalAlign=top;spacingLeft=4;spacingRight=4;overflow=hidden;rotatable=0;points=[[0,0.5],[1,0.5]];portConstraint=eastwest;" parent="oW8NMeTdjoWrqpmzOP1x-33" vertex="1">
          <mxGeometry y="346" width="330" height="26" as="geometry" />
        </mxCell>
        <mxCell id="oW8NMeTdjoWrqpmzOP1x-88" value="+ getPriority(): int " style="text;strokeColor=none;fillColor=none;align=left;verticalAlign=top;spacingLeft=4;spacingRight=4;overflow=hidden;rotatable=0;points=[[0,0.5],[1,0.5]];portConstraint=eastwest;" parent="oW8NMeTdjoWrqpmzOP1x-33" vertex="1">
          <mxGeometry y="372" width="330" height="26" as="geometry" />
        </mxCell>
        <mxCell id="oW8NMeTdjoWrqpmzOP1x-89" value="+ setPriority(int): void" style="text;strokeColor=none;fillColor=none;align=left;verticalAlign=top;spacingLeft=4;spacingRight=4;overflow=hidden;rotatable=0;points=[[0,0.5],[1,0.5]];portConstraint=eastwest;" parent="oW8NMeTdjoWrqpmzOP1x-33" vertex="1">
          <mxGeometry y="398" width="330" height="26" as="geometry" />
        </mxCell>
        <mxCell id="oW8NMeTdjoWrqpmzOP1x-90" value="+ getImpact(): int" style="text;strokeColor=none;fillColor=none;align=left;verticalAlign=top;spacingLeft=4;spacingRight=4;overflow=hidden;rotatable=0;points=[[0,0.5],[1,0.5]];portConstraint=eastwest;" parent="oW8NMeTdjoWrqpmzOP1x-33" vertex="1">
          <mxGeometry y="424" width="330" height="26" as="geometry" />
        </mxCell>
        <mxCell id="oW8NMeTdjoWrqpmzOP1x-91" value="+ setImpact(int): void" style="text;strokeColor=none;fillColor=none;align=left;verticalAlign=top;spacingLeft=4;spacingRight=4;overflow=hidden;rotatable=0;points=[[0,0.5],[1,0.5]];portConstraint=eastwest;" parent="oW8NMeTdjoWrqpmzOP1x-33" vertex="1">
          <mxGeometry y="450" width="330" height="26" as="geometry" />
        </mxCell>
        <mxCell id="oW8NMeTdjoWrqpmzOP1x-92" value="+ getDateCreated(): Date" style="text;strokeColor=none;fillColor=none;align=left;verticalAlign=top;spacingLeft=4;spacingRight=4;overflow=hidden;rotatable=0;points=[[0,0.5],[1,0.5]];portConstraint=eastwest;" parent="oW8NMeTdjoWrqpmzOP1x-33" vertex="1">
          <mxGeometry y="476" width="330" height="26" as="geometry" />
        </mxCell>
        <mxCell id="oW8NMeTdjoWrqpmzOP1x-93" value="+ setDateCreated(Date): void" style="text;strokeColor=none;fillColor=none;align=left;verticalAlign=top;spacingLeft=4;spacingRight=4;overflow=hidden;rotatable=0;points=[[0,0.5],[1,0.5]];portConstraint=eastwest;" parent="oW8NMeTdjoWrqpmzOP1x-33" vertex="1">
          <mxGeometry y="502" width="330" height="26" as="geometry" />
        </mxCell>
        <mxCell id="oW8NMeTdjoWrqpmzOP1x-94" value="+ getDateNeeded(): Date" style="text;strokeColor=none;fillColor=none;align=left;verticalAlign=top;spacingLeft=4;spacingRight=4;overflow=hidden;rotatable=0;points=[[0,0.5],[1,0.5]];portConstraint=eastwest;" parent="oW8NMeTdjoWrqpmzOP1x-33" vertex="1">
          <mxGeometry y="528" width="330" height="26" as="geometry" />
        </mxCell>
        <mxCell id="oW8NMeTdjoWrqpmzOP1x-95" value="+ setDateNeeded(Date): void" style="text;strokeColor=none;fillColor=none;align=left;verticalAlign=top;spacingLeft=4;spacingRight=4;overflow=hidden;rotatable=0;points=[[0,0.5],[1,0.5]];portConstraint=eastwest;" parent="oW8NMeTdjoWrqpmzOP1x-33" vertex="1">
          <mxGeometry y="554" width="330" height="26" as="geometry" />
        </mxCell>
        <mxCell id="oW8NMeTdjoWrqpmzOP1x-96" value="+ getDateMade(): Date" style="text;strokeColor=none;fillColor=none;align=left;verticalAlign=top;spacingLeft=4;spacingRight=4;overflow=hidden;rotatable=0;points=[[0,0.5],[1,0.5]];portConstraint=eastwest;" parent="oW8NMeTdjoWrqpmzOP1x-33" vertex="1">
          <mxGeometry y="580" width="330" height="26" as="geometry" />
        </mxCell>
        <mxCell id="oW8NMeTdjoWrqpmzOP1x-97" value="+ setDateMade(Date): void" style="text;strokeColor=none;fillColor=none;align=left;verticalAlign=top;spacingLeft=4;spacingRight=4;overflow=hidden;rotatable=0;points=[[0,0.5],[1,0.5]];portConstraint=eastwest;" parent="oW8NMeTdjoWrqpmzOP1x-33" vertex="1">
          <mxGeometry y="606" width="330" height="26" as="geometry" />
        </mxCell>
        <mxCell id="oW8NMeTdjoWrqpmzOP1x-110" value="+ getExpectedCompletionDate(): Date&#xa;" style="text;strokeColor=none;fillColor=none;align=left;verticalAlign=top;spacingLeft=4;spacingRight=4;overflow=hidden;rotatable=0;points=[[0,0.5],[1,0.5]];portConstraint=eastwest;" parent="oW8NMeTdjoWrqpmzOP1x-33" vertex="1">
          <mxGeometry y="632" width="330" height="26" as="geometry" />
        </mxCell>
        <mxCell id="oW8NMeTdjoWrqpmzOP1x-111" value="+ setExpectedCompletionDate(Date): void&#xa;" style="text;strokeColor=none;fillColor=none;align=left;verticalAlign=top;spacingLeft=4;spacingRight=4;overflow=hidden;rotatable=0;points=[[0,0.5],[1,0.5]];portConstraint=eastwest;" parent="oW8NMeTdjoWrqpmzOP1x-33" vertex="1">
          <mxGeometry y="658" width="330" height="26" as="geometry" />
        </mxCell>
        <mxCell id="oW8NMeTdjoWrqpmzOP1x-112" value="+ getActualCompletionDate(): Date" style="text;strokeColor=none;fillColor=none;align=left;verticalAlign=top;spacingLeft=4;spacingRight=4;overflow=hidden;rotatable=0;points=[[0,0.5],[1,0.5]];portConstraint=eastwest;" parent="oW8NMeTdjoWrqpmzOP1x-33" vertex="1">
          <mxGeometry y="684" width="330" height="26" as="geometry" />
        </mxCell>
        <mxCell id="oW8NMeTdjoWrqpmzOP1x-113" value="+ setActualCompletionDate(Date): void" style="text;strokeColor=none;fillColor=none;align=left;verticalAlign=top;spacingLeft=4;spacingRight=4;overflow=hidden;rotatable=0;points=[[0,0.5],[1,0.5]];portConstraint=eastwest;" parent="oW8NMeTdjoWrqpmzOP1x-33" vertex="1">
          <mxGeometry y="710" width="330" height="26" as="geometry" />
        </mxCell>
        <mxCell id="oW8NMeTdjoWrqpmzOP1x-116" value="+ getStatus(): int" style="text;strokeColor=none;fillColor=none;align=left;verticalAlign=top;spacingLeft=4;spacingRight=4;overflow=hidden;rotatable=0;points=[[0,0.5],[1,0.5]];portConstraint=eastwest;" parent="oW8NMeTdjoWrqpmzOP1x-33" vertex="1">
          <mxGeometry y="736" width="330" height="26" as="geometry" />
        </mxCell>
        <mxCell id="oW8NMeTdjoWrqpmzOP1x-117" value="+ setStatus(int): void" style="text;strokeColor=none;fillColor=none;align=left;verticalAlign=top;spacingLeft=4;spacingRight=4;overflow=hidden;rotatable=0;points=[[0,0.5],[1,0.5]];portConstraint=eastwest;" parent="oW8NMeTdjoWrqpmzOP1x-33" vertex="1">
          <mxGeometry y="762" width="330" height="26" as="geometry" />
        </mxCell>
        <mxCell id="oW8NMeTdjoWrqpmzOP1x-118" value="+ getStatusDescription(): String" style="text;strokeColor=none;fillColor=none;align=left;verticalAlign=top;spacingLeft=4;spacingRight=4;overflow=hidden;rotatable=0;points=[[0,0.5],[1,0.5]];portConstraint=eastwest;" parent="oW8NMeTdjoWrqpmzOP1x-33" vertex="1">
          <mxGeometry y="788" width="330" height="26" as="geometry" />
        </mxCell>
        <mxCell id="oW8NMeTdjoWrqpmzOP1x-119" value="+ setStatusDescription(String): void" style="text;strokeColor=none;fillColor=none;align=left;verticalAlign=top;spacingLeft=4;spacingRight=4;overflow=hidden;rotatable=0;points=[[0,0.5],[1,0.5]];portConstraint=eastwest;" parent="oW8NMeTdjoWrqpmzOP1x-33" vertex="1">
          <mxGeometry y="814" width="330" height="26" as="geometry" />
        </mxCell>
        <mxCell id="oW8NMeTdjoWrqpmzOP1x-121" value="+ setUpdateDate(Date): void" style="text;strokeColor=none;fillColor=none;align=left;verticalAlign=top;spacingLeft=4;spacingRight=4;overflow=hidden;rotatable=0;points=[[0,0.5],[1,0.5]];portConstraint=eastwest;" parent="oW8NMeTdjoWrqpmzOP1x-33" vertex="1">
          <mxGeometry y="840" width="330" height="26" as="geometry" />
        </mxCell>
        <mxCell id="oW8NMeTdjoWrqpmzOP1x-122" value="+ getUpdateDate(): Date" style="text;strokeColor=none;fillColor=none;align=left;verticalAlign=top;spacingLeft=4;spacingRight=4;overflow=hidden;rotatable=0;points=[[0,0.5],[1,0.5]];portConstraint=eastwest;" parent="oW8NMeTdjoWrqpmzOP1x-33" vertex="1">
          <mxGeometry y="866" width="330" height="26" as="geometry" />
        </mxCell>
        <mxCell id="oW8NMeTdjoWrqpmzOP1x-53" value="+ createDecision(Decision): boolean" style="text;strokeColor=none;fillColor=none;align=left;verticalAlign=top;spacingLeft=4;spacingRight=4;overflow=hidden;rotatable=0;points=[[0,0.5],[1,0.5]];portConstraint=eastwest;fontStyle=4" parent="oW8NMeTdjoWrqpmzOP1x-33" vertex="1">
          <mxGeometry y="892" width="330" height="26" as="geometry" />
        </mxCell>
        <mxCell id="oW8NMeTdjoWrqpmzOP1x-54" value="+ saveDecision(Decision): boolean" style="text;strokeColor=none;fillColor=none;align=left;verticalAlign=top;spacingLeft=4;spacingRight=4;overflow=hidden;rotatable=0;points=[[0,0.5],[1,0.5]];portConstraint=eastwest;fontStyle=4" parent="oW8NMeTdjoWrqpmzOP1x-33" vertex="1">
          <mxGeometry y="918" width="330" height="26" as="geometry" />
        </mxCell>
        <mxCell id="oW8NMeTdjoWrqpmzOP1x-55" value="+ updateDecision(Decision): boolean" style="text;strokeColor=none;fillColor=none;align=left;verticalAlign=top;spacingLeft=4;spacingRight=4;overflow=hidden;rotatable=0;points=[[0,0.5],[1,0.5]];portConstraint=eastwest;fontStyle=4" parent="oW8NMeTdjoWrqpmzOP1x-33" vertex="1">
          <mxGeometry y="944" width="330" height="26" as="geometry" />
        </mxCell>
        <mxCell id="oW8NMeTdjoWrqpmzOP1x-56" value="+ deleteDecision(int): boolean" style="text;strokeColor=none;fillColor=none;align=left;verticalAlign=top;spacingLeft=4;spacingRight=4;overflow=hidden;rotatable=0;points=[[0,0.5],[1,0.5]];portConstraint=eastwest;fontStyle=4" parent="oW8NMeTdjoWrqpmzOP1x-33" vertex="1">
          <mxGeometry y="970" width="330" height="26" as="geometry" />
        </mxCell>
        <mxCell id="oW8NMeTdjoWrqpmzOP1x-57" value="+ updateAssociatedResources(int, int[]): void" style="text;strokeColor=none;fillColor=none;align=left;verticalAlign=top;spacingLeft=4;spacingRight=4;overflow=hidden;rotatable=0;points=[[0,0.5],[1,0.5]];portConstraint=eastwest;fontStyle=4" parent="oW8NMeTdjoWrqpmzOP1x-33" vertex="1">
          <mxGeometry y="996" width="330" height="26" as="geometry" />
        </mxCell>
        <mxCell id="oW8NMeTdjoWrqpmzOP1x-58" value="+ updateAssociatedReferenceDocuments(int, int[]): void" style="text;strokeColor=none;fillColor=none;align=left;verticalAlign=top;spacingLeft=4;spacingRight=4;overflow=hidden;rotatable=0;points=[[0,0.5],[1,0.5]];portConstraint=eastwest;fontStyle=4" parent="oW8NMeTdjoWrqpmzOP1x-33" vertex="1">
          <mxGeometry y="1022" width="330" height="26" as="geometry" />
        </mxCell>
        <mxCell id="oW8NMeTdjoWrqpmzOP1x-59" value="+ updateAssociatedMeetingNotes(int, int[]): void" style="text;strokeColor=none;fillColor=none;align=left;verticalAlign=top;spacingLeft=4;spacingRight=4;overflow=hidden;rotatable=0;points=[[0,0.5],[1,0.5]];portConstraint=eastwest;fontStyle=4" parent="oW8NMeTdjoWrqpmzOP1x-33" vertex="1">
          <mxGeometry y="1048" width="330" height="26" as="geometry" />
        </mxCell>
        <mxCell id="oW8NMeTdjoWrqpmzOP1x-60" value="+ addAssociatedResources(int, int[]): boolean" style="text;strokeColor=none;fillColor=none;align=left;verticalAlign=top;spacingLeft=4;spacingRight=4;overflow=hidden;rotatable=0;points=[[0,0.5],[1,0.5]];portConstraint=eastwest;fontStyle=4" parent="oW8NMeTdjoWrqpmzOP1x-33" vertex="1">
          <mxGeometry y="1074" width="330" height="26" as="geometry" />
        </mxCell>
        <mxCell id="oW8NMeTdjoWrqpmzOP1x-61" value="+ addAssociatedReferenceDocuments(int, int[]): boolean" style="text;strokeColor=none;fillColor=none;align=left;verticalAlign=top;spacingLeft=4;spacingRight=4;overflow=hidden;rotatable=0;points=[[0,0.5],[1,0.5]];portConstraint=eastwest;fontStyle=4" parent="oW8NMeTdjoWrqpmzOP1x-33" vertex="1">
          <mxGeometry y="1100" width="330" height="26" as="geometry" />
        </mxCell>
        <mxCell id="oW8NMeTdjoWrqpmzOP1x-63" value="+ addAssociatedMeetingNotes(int, int[]): boolean" style="text;strokeColor=none;fillColor=none;align=left;verticalAlign=top;spacingLeft=4;spacingRight=4;overflow=hidden;rotatable=0;points=[[0,0.5],[1,0.5]];portConstraint=eastwest;fontStyle=4" parent="oW8NMeTdjoWrqpmzOP1x-33" vertex="1">
          <mxGeometry y="1126" width="330" height="26" as="geometry" />
        </mxCell>
        <mxCell id="oW8NMeTdjoWrqpmzOP1x-123" value="+ getDecisions(int): Decision" style="text;strokeColor=none;fillColor=none;align=left;verticalAlign=top;spacingLeft=4;spacingRight=4;overflow=hidden;rotatable=0;points=[[0,0.5],[1,0.5]];portConstraint=eastwest;fontStyle=4" parent="oW8NMeTdjoWrqpmzOP1x-33" vertex="1">
          <mxGeometry y="1152" width="330" height="26" as="geometry" />
        </mxCell>
        <mxCell id="oW8NMeTdjoWrqpmzOP1x-124" value="+ getDecision(): Decision[]" style="text;strokeColor=none;fillColor=none;align=left;verticalAlign=top;spacingLeft=4;spacingRight=4;overflow=hidden;rotatable=0;points=[[0,0.5],[1,0.5]];portConstraint=eastwest;fontStyle=4" parent="oW8NMeTdjoWrqpmzOP1x-33" vertex="1">
          <mxGeometry y="1178" width="330" height="26" as="geometry" />
        </mxCell>
        <mxCell id="EN4bmFngzURgGS1C15jc-59" value="Issue" style="swimlane;fontStyle=1;align=center;verticalAlign=top;childLayout=stackLayout;horizontal=1;startSize=26;horizontalStack=0;resizeParent=1;resizeParentMax=0;resizeLast=0;collapsible=1;marginBottom=0;" vertex="1" parent="1">
          <mxGeometry x="800" y="260" width="330" height="1022" as="geometry">
            <mxRectangle x="990" y="260" width="90" height="26" as="alternateBounds" />
          </mxGeometry>
        </mxCell>
        <mxCell id="EN4bmFngzURgGS1C15jc-60" value="- description: String" style="text;strokeColor=none;fillColor=none;align=left;verticalAlign=top;spacingLeft=4;spacingRight=4;overflow=hidden;rotatable=0;points=[[0,0.5],[1,0.5]];portConstraint=eastwest;" vertex="1" parent="EN4bmFngzURgGS1C15jc-59">
          <mxGeometry y="26" width="330" height="26" as="geometry" />
        </mxCell>
        <mxCell id="EN4bmFngzURgGS1C15jc-61" value="- priority: int " style="text;strokeColor=none;fillColor=none;align=left;verticalAlign=top;spacingLeft=4;spacingRight=4;overflow=hidden;rotatable=0;points=[[0,0.5],[1,0.5]];portConstraint=eastwest;" vertex="1" parent="EN4bmFngzURgGS1C15jc-59">
          <mxGeometry y="52" width="330" height="26" as="geometry" />
        </mxCell>
        <mxCell id="EN4bmFngzURgGS1C15jc-62" value="- severity: int" style="text;strokeColor=none;fillColor=none;align=left;verticalAlign=top;spacingLeft=4;spacingRight=4;overflow=hidden;rotatable=0;points=[[0,0.5],[1,0.5]];portConstraint=eastwest;" vertex="1" parent="EN4bmFngzURgGS1C15jc-59">
          <mxGeometry y="78" width="330" height="26" as="geometry" />
        </mxCell>
        <mxCell id="EN4bmFngzURgGS1C15jc-63" value="- dateRaised: Date" style="text;strokeColor=none;fillColor=none;align=left;verticalAlign=top;spacingLeft=4;spacingRight=4;overflow=hidden;rotatable=0;points=[[0,0.5],[1,0.5]];portConstraint=eastwest;" vertex="1" parent="EN4bmFngzURgGS1C15jc-59">
          <mxGeometry y="104" width="330" height="26" as="geometry" />
        </mxCell>
        <mxCell id="EN4bmFngzURgGS1C15jc-64" value="- dateAssigned: Date" style="text;strokeColor=none;fillColor=none;align=left;verticalAlign=top;spacingLeft=4;spacingRight=4;overflow=hidden;rotatable=0;points=[[0,0.5],[1,0.5]];portConstraint=eastwest;" vertex="1" parent="EN4bmFngzURgGS1C15jc-59">
          <mxGeometry y="130" width="330" height="26" as="geometry" />
        </mxCell>
        <mxCell id="EN4bmFngzURgGS1C15jc-66" value="- expectedCompletionDate: Date&#xa;" style="text;strokeColor=none;fillColor=none;align=left;verticalAlign=top;spacingLeft=4;spacingRight=4;overflow=hidden;rotatable=0;points=[[0,0.5],[1,0.5]];portConstraint=eastwest;" vertex="1" parent="EN4bmFngzURgGS1C15jc-59">
          <mxGeometry y="156" width="330" height="26" as="geometry" />
        </mxCell>
        <mxCell id="EN4bmFngzURgGS1C15jc-67" value="- actualCompletionDate: Date" style="text;strokeColor=none;fillColor=none;align=left;verticalAlign=top;spacingLeft=4;spacingRight=4;overflow=hidden;rotatable=0;points=[[0,0.5],[1,0.5]];portConstraint=eastwest;" vertex="1" parent="EN4bmFngzURgGS1C15jc-59">
          <mxGeometry y="182" width="330" height="26" as="geometry" />
        </mxCell>
        <mxCell id="EN4bmFngzURgGS1C15jc-68" value="- status: int" style="text;strokeColor=none;fillColor=none;align=left;verticalAlign=top;spacingLeft=4;spacingRight=4;overflow=hidden;rotatable=0;points=[[0,0.5],[1,0.5]];portConstraint=eastwest;" vertex="1" parent="EN4bmFngzURgGS1C15jc-59">
          <mxGeometry y="208" width="330" height="26" as="geometry" />
        </mxCell>
        <mxCell id="EN4bmFngzURgGS1C15jc-69" value="- statusDescription: String" style="text;strokeColor=none;fillColor=none;align=left;verticalAlign=top;spacingLeft=4;spacingRight=4;overflow=hidden;rotatable=0;points=[[0,0.5],[1,0.5]];portConstraint=eastwest;" vertex="1" parent="EN4bmFngzURgGS1C15jc-59">
          <mxGeometry y="234" width="330" height="26" as="geometry" />
        </mxCell>
        <mxCell id="EN4bmFngzURgGS1C15jc-70" value="- updateDate: Date" style="text;strokeColor=none;fillColor=none;align=left;verticalAlign=top;spacingLeft=4;spacingRight=4;overflow=hidden;rotatable=0;points=[[0,0.5],[1,0.5]];portConstraint=eastwest;" vertex="1" parent="EN4bmFngzURgGS1C15jc-59">
          <mxGeometry y="260" width="330" height="26" as="geometry" />
        </mxCell>
        <mxCell id="EN4bmFngzURgGS1C15jc-71" value="" style="line;strokeWidth=1;fillColor=none;align=left;verticalAlign=middle;spacingTop=-1;spacingLeft=3;spacingRight=3;rotatable=0;labelPosition=right;points=[];portConstraint=eastwest;" vertex="1" parent="EN4bmFngzURgGS1C15jc-59">
          <mxGeometry y="286" width="330" height="8" as="geometry" />
        </mxCell>
        <mxCell id="EN4bmFngzURgGS1C15jc-108" value="+ getDescription(): String" style="text;strokeColor=none;fillColor=none;align=left;verticalAlign=top;spacingLeft=4;spacingRight=4;overflow=hidden;rotatable=0;points=[[0,0.5],[1,0.5]];portConstraint=eastwest;" vertex="1" parent="EN4bmFngzURgGS1C15jc-59">
          <mxGeometry y="294" width="330" height="26" as="geometry" />
        </mxCell>
        <mxCell id="EN4bmFngzURgGS1C15jc-114" value="+ setDescription(String): void" style="text;strokeColor=none;fillColor=none;align=left;verticalAlign=top;spacingLeft=4;spacingRight=4;overflow=hidden;rotatable=0;points=[[0,0.5],[1,0.5]];portConstraint=eastwest;" vertex="1" parent="EN4bmFngzURgGS1C15jc-59">
          <mxGeometry y="320" width="330" height="26" as="geometry" />
        </mxCell>
        <mxCell id="EN4bmFngzURgGS1C15jc-115" value="+ getPriority(): int " style="text;strokeColor=none;fillColor=none;align=left;verticalAlign=top;spacingLeft=4;spacingRight=4;overflow=hidden;rotatable=0;points=[[0,0.5],[1,0.5]];portConstraint=eastwest;" vertex="1" parent="EN4bmFngzURgGS1C15jc-59">
          <mxGeometry y="346" width="330" height="26" as="geometry" />
        </mxCell>
        <mxCell id="EN4bmFngzURgGS1C15jc-116" value="+ setPriority(int): void" style="text;strokeColor=none;fillColor=none;align=left;verticalAlign=top;spacingLeft=4;spacingRight=4;overflow=hidden;rotatable=0;points=[[0,0.5],[1,0.5]];portConstraint=eastwest;" vertex="1" parent="EN4bmFngzURgGS1C15jc-59">
          <mxGeometry y="372" width="330" height="26" as="geometry" />
        </mxCell>
        <mxCell id="EN4bmFngzURgGS1C15jc-117" value="+ getSeverity(): int" style="text;strokeColor=none;fillColor=none;align=left;verticalAlign=top;spacingLeft=4;spacingRight=4;overflow=hidden;rotatable=0;points=[[0,0.5],[1,0.5]];portConstraint=eastwest;" vertex="1" parent="EN4bmFngzURgGS1C15jc-59">
          <mxGeometry y="398" width="330" height="26" as="geometry" />
        </mxCell>
        <mxCell id="EN4bmFngzURgGS1C15jc-118" value="+ setSeverity(int): void" style="text;strokeColor=none;fillColor=none;align=left;verticalAlign=top;spacingLeft=4;spacingRight=4;overflow=hidden;rotatable=0;points=[[0,0.5],[1,0.5]];portConstraint=eastwest;" vertex="1" parent="EN4bmFngzURgGS1C15jc-59">
          <mxGeometry y="424" width="330" height="26" as="geometry" />
        </mxCell>
        <mxCell id="EN4bmFngzURgGS1C15jc-119" value="+ getDateRaised(): Date" style="text;strokeColor=none;fillColor=none;align=left;verticalAlign=top;spacingLeft=4;spacingRight=4;overflow=hidden;rotatable=0;points=[[0,0.5],[1,0.5]];portConstraint=eastwest;" vertex="1" parent="EN4bmFngzURgGS1C15jc-59">
          <mxGeometry y="450" width="330" height="26" as="geometry" />
        </mxCell>
        <mxCell id="EN4bmFngzURgGS1C15jc-120" value="+ setDateRaised(Date): void" style="text;strokeColor=none;fillColor=none;align=left;verticalAlign=top;spacingLeft=4;spacingRight=4;overflow=hidden;rotatable=0;points=[[0,0.5],[1,0.5]];portConstraint=eastwest;" vertex="1" parent="EN4bmFngzURgGS1C15jc-59">
          <mxGeometry y="476" width="330" height="26" as="geometry" />
        </mxCell>
        <mxCell id="EN4bmFngzURgGS1C15jc-121" value="+ getDateAssigned(): Date" style="text;strokeColor=none;fillColor=none;align=left;verticalAlign=top;spacingLeft=4;spacingRight=4;overflow=hidden;rotatable=0;points=[[0,0.5],[1,0.5]];portConstraint=eastwest;" vertex="1" parent="EN4bmFngzURgGS1C15jc-59">
          <mxGeometry y="502" width="330" height="26" as="geometry" />
        </mxCell>
        <mxCell id="EN4bmFngzURgGS1C15jc-122" value="+ setDateAssigned(Date): void" style="text;strokeColor=none;fillColor=none;align=left;verticalAlign=top;spacingLeft=4;spacingRight=4;overflow=hidden;rotatable=0;points=[[0,0.5],[1,0.5]];portConstraint=eastwest;" vertex="1" parent="EN4bmFngzURgGS1C15jc-59">
          <mxGeometry y="528" width="330" height="26" as="geometry" />
        </mxCell>
        <mxCell id="EN4bmFngzURgGS1C15jc-123" value="+ getExpectedCompletionDate(): Date" style="text;strokeColor=none;fillColor=none;align=left;verticalAlign=top;spacingLeft=4;spacingRight=4;overflow=hidden;rotatable=0;points=[[0,0.5],[1,0.5]];portConstraint=eastwest;" vertex="1" parent="EN4bmFngzURgGS1C15jc-59">
          <mxGeometry y="554" width="330" height="26" as="geometry" />
        </mxCell>
        <mxCell id="EN4bmFngzURgGS1C15jc-124" value="+ setExpectedCompletionDate(Date): void" style="text;strokeColor=none;fillColor=none;align=left;verticalAlign=top;spacingLeft=4;spacingRight=4;overflow=hidden;rotatable=0;points=[[0,0.5],[1,0.5]];portConstraint=eastwest;" vertex="1" parent="EN4bmFngzURgGS1C15jc-59">
          <mxGeometry y="580" width="330" height="26" as="geometry" />
        </mxCell>
        <mxCell id="EN4bmFngzURgGS1C15jc-125" value="+ getActualCompletionDate(): Date" style="text;strokeColor=none;fillColor=none;align=left;verticalAlign=top;spacingLeft=4;spacingRight=4;overflow=hidden;rotatable=0;points=[[0,0.5],[1,0.5]];portConstraint=eastwest;" vertex="1" parent="EN4bmFngzURgGS1C15jc-59">
          <mxGeometry y="606" width="330" height="26" as="geometry" />
        </mxCell>
        <mxCell id="EN4bmFngzURgGS1C15jc-126" value="+ setActualCompletionDate(Date): void" style="text;strokeColor=none;fillColor=none;align=left;verticalAlign=top;spacingLeft=4;spacingRight=4;overflow=hidden;rotatable=0;points=[[0,0.5],[1,0.5]];portConstraint=eastwest;" vertex="1" parent="EN4bmFngzURgGS1C15jc-59">
          <mxGeometry y="632" width="330" height="26" as="geometry" />
        </mxCell>
        <mxCell id="EN4bmFngzURgGS1C15jc-127" value="+ getStatus(): int" style="text;strokeColor=none;fillColor=none;align=left;verticalAlign=top;spacingLeft=4;spacingRight=4;overflow=hidden;rotatable=0;points=[[0,0.5],[1,0.5]];portConstraint=eastwest;" vertex="1" parent="EN4bmFngzURgGS1C15jc-59">
          <mxGeometry y="658" width="330" height="26" as="geometry" />
        </mxCell>
        <mxCell id="EN4bmFngzURgGS1C15jc-128" value="+ setStatus(int): void" style="text;strokeColor=none;fillColor=none;align=left;verticalAlign=top;spacingLeft=4;spacingRight=4;overflow=hidden;rotatable=0;points=[[0,0.5],[1,0.5]];portConstraint=eastwest;" vertex="1" parent="EN4bmFngzURgGS1C15jc-59">
          <mxGeometry y="684" width="330" height="26" as="geometry" />
        </mxCell>
        <mxCell id="EN4bmFngzURgGS1C15jc-129" value="+ getStatusDescription(): String" style="text;strokeColor=none;fillColor=none;align=left;verticalAlign=top;spacingLeft=4;spacingRight=4;overflow=hidden;rotatable=0;points=[[0,0.5],[1,0.5]];portConstraint=eastwest;" vertex="1" parent="EN4bmFngzURgGS1C15jc-59">
          <mxGeometry y="710" width="330" height="26" as="geometry" />
        </mxCell>
        <mxCell id="EN4bmFngzURgGS1C15jc-130" value="+ setStatusDescription(String): void" style="text;strokeColor=none;fillColor=none;align=left;verticalAlign=top;spacingLeft=4;spacingRight=4;overflow=hidden;rotatable=0;points=[[0,0.5],[1,0.5]];portConstraint=eastwest;" vertex="1" parent="EN4bmFngzURgGS1C15jc-59">
          <mxGeometry y="736" width="330" height="26" as="geometry" />
        </mxCell>
        <mxCell id="EN4bmFngzURgGS1C15jc-131" value="+ setUpdateDate(Date): void" style="text;strokeColor=none;fillColor=none;align=left;verticalAlign=top;spacingLeft=4;spacingRight=4;overflow=hidden;rotatable=0;points=[[0,0.5],[1,0.5]];portConstraint=eastwest;" vertex="1" parent="EN4bmFngzURgGS1C15jc-59">
          <mxGeometry y="762" width="330" height="26" as="geometry" />
        </mxCell>
        <mxCell id="EN4bmFngzURgGS1C15jc-132" value="+ getUpdateDate(): Date" style="text;strokeColor=none;fillColor=none;align=left;verticalAlign=top;spacingLeft=4;spacingRight=4;overflow=hidden;rotatable=0;points=[[0,0.5],[1,0.5]];portConstraint=eastwest;" vertex="1" parent="EN4bmFngzURgGS1C15jc-59">
          <mxGeometry y="788" width="330" height="26" as="geometry" />
        </mxCell>
        <mxCell id="EN4bmFngzURgGS1C15jc-134" value="+ createIssue(Issue): boolean" style="text;strokeColor=none;fillColor=none;align=left;verticalAlign=top;spacingLeft=4;spacingRight=4;overflow=hidden;rotatable=0;points=[[0,0.5],[1,0.5]];portConstraint=eastwest;fontStyle=4" vertex="1" parent="EN4bmFngzURgGS1C15jc-59">
          <mxGeometry y="814" width="330" height="26" as="geometry" />
        </mxCell>
        <mxCell id="EN4bmFngzURgGS1C15jc-135" value="+ saveIssue(Issue,int[].int[]): boolean" style="text;strokeColor=none;fillColor=none;align=left;verticalAlign=top;spacingLeft=4;spacingRight=4;overflow=hidden;rotatable=0;points=[[0,0.5],[1,0.5]];portConstraint=eastwest;fontStyle=4" vertex="1" parent="EN4bmFngzURgGS1C15jc-59">
          <mxGeometry y="840" width="330" height="26" as="geometry" />
        </mxCell>
        <mxCell id="EN4bmFngzURgGS1C15jc-136" value="+ updateIssue(Issue): boolean" style="text;strokeColor=none;fillColor=none;align=left;verticalAlign=top;spacingLeft=4;spacingRight=4;overflow=hidden;rotatable=0;points=[[0,0.5],[1,0.5]];portConstraint=eastwest;fontStyle=4" vertex="1" parent="EN4bmFngzURgGS1C15jc-59">
          <mxGeometry y="866" width="330" height="26" as="geometry" />
        </mxCell>
        <mxCell id="EN4bmFngzURgGS1C15jc-137" value="+ deleteIssue(int): boolean" style="text;strokeColor=none;fillColor=none;align=left;verticalAlign=top;spacingLeft=4;spacingRight=4;overflow=hidden;rotatable=0;points=[[0,0.5],[1,0.5]];portConstraint=eastwest;fontStyle=4" vertex="1" parent="EN4bmFngzURgGS1C15jc-59">
          <mxGeometry y="892" width="330" height="26" as="geometry" />
        </mxCell>
        <mxCell id="EN4bmFngzURgGS1C15jc-138" value="+ updateAssociatedDecisions(int, int[]): void" style="text;strokeColor=none;fillColor=none;align=left;verticalAlign=top;spacingLeft=4;spacingRight=4;overflow=hidden;rotatable=0;points=[[0,0.5],[1,0.5]];portConstraint=eastwest;fontStyle=4" vertex="1" parent="EN4bmFngzURgGS1C15jc-59">
          <mxGeometry y="918" width="330" height="26" as="geometry" />
        </mxCell>
        <mxCell id="EN4bmFngzURgGS1C15jc-139" value="+ updateAssociatedActionItems(int, int[]): void" style="text;strokeColor=none;fillColor=none;align=left;verticalAlign=top;spacingLeft=4;spacingRight=4;overflow=hidden;rotatable=0;points=[[0,0.5],[1,0.5]];portConstraint=eastwest;fontStyle=4" vertex="1" parent="EN4bmFngzURgGS1C15jc-59">
          <mxGeometry y="944" width="330" height="26" as="geometry" />
        </mxCell>
        <mxCell id="EN4bmFngzURgGS1C15jc-140" value="+ addAssociatedDecisions(int, int[]): void" style="text;strokeColor=none;fillColor=none;align=left;verticalAlign=top;spacingLeft=4;spacingRight=4;overflow=hidden;rotatable=0;points=[[0,0.5],[1,0.5]];portConstraint=eastwest;fontStyle=4" vertex="1" parent="EN4bmFngzURgGS1C15jc-59">
          <mxGeometry y="970" width="330" height="26" as="geometry" />
        </mxCell>
        <mxCell id="EN4bmFngzURgGS1C15jc-141" value="+ addAssociatedActionItems(int, int[]): void" style="text;strokeColor=none;fillColor=none;align=left;verticalAlign=top;spacingLeft=4;spacingRight=4;overflow=hidden;rotatable=0;points=[[0,0.5],[1,0.5]];portConstraint=eastwest;fontStyle=4" vertex="1" parent="EN4bmFngzURgGS1C15jc-59">
          <mxGeometry y="996" width="330" height="26" as="geometry" />
        </mxCell>
        <mxCell id="AJkytsJuZ1-eA44GaWmQ-66" value="Task" style="swimlane;fontStyle=1;align=center;verticalAlign=top;childLayout=stackLayout;horizontal=1;startSize=26;horizontalStack=0;resizeParent=1;resizeParentMax=0;resizeLast=0;collapsible=1;marginBottom=0;" parent="1" vertex="1">
          <mxGeometry x="400" y="260" width="380" height="1490" as="geometry" />
        </mxCell>
        <mxCell id="AJkytsJuZ1-eA44GaWmQ-67" value="- description: String" style="text;strokeColor=none;fillColor=none;align=left;verticalAlign=top;spacingLeft=4;spacingRight=4;overflow=hidden;rotatable=0;points=[[0,0.5],[1,0.5]];portConstraint=eastwest;" parent="AJkytsJuZ1-eA44GaWmQ-66" vertex="1">
          <mxGeometry y="26" width="380" height="26" as="geometry" />
        </mxCell>
        <mxCell id="AJkytsJuZ1-eA44GaWmQ-84" value="- expectedStartDate: Date" style="text;strokeColor=none;fillColor=none;align=left;verticalAlign=top;spacingLeft=4;spacingRight=4;overflow=hidden;rotatable=0;points=[[0,0.5],[1,0.5]];portConstraint=eastwest;" parent="AJkytsJuZ1-eA44GaWmQ-66" vertex="1">
          <mxGeometry y="52" width="380" height="26" as="geometry" />
        </mxCell>
        <mxCell id="AJkytsJuZ1-eA44GaWmQ-85" value="- expectedEndDate: Date" style="text;strokeColor=none;fillColor=none;align=left;verticalAlign=top;spacingLeft=4;spacingRight=4;overflow=hidden;rotatable=0;points=[[0,0.5],[1,0.5]];portConstraint=eastwest;" parent="AJkytsJuZ1-eA44GaWmQ-66" vertex="1">
          <mxGeometry y="78" width="380" height="26" as="geometry" />
        </mxCell>
        <mxCell id="AJkytsJuZ1-eA44GaWmQ-87" value="- expectedDuration: float" style="text;strokeColor=none;fillColor=none;align=left;verticalAlign=top;spacingLeft=4;spacingRight=4;overflow=hidden;rotatable=0;points=[[0,0.5],[1,0.5]];portConstraint=eastwest;" parent="AJkytsJuZ1-eA44GaWmQ-66" vertex="1">
          <mxGeometry y="104" width="380" height="26" as="geometry" />
        </mxCell>
        <mxCell id="AJkytsJuZ1-eA44GaWmQ-68" value="- expectedEffort: float" style="text;strokeColor=none;fillColor=none;align=left;verticalAlign=top;spacingLeft=4;spacingRight=4;overflow=hidden;rotatable=0;points=[[0,0.5],[1,0.5]];portConstraint=eastwest;" parent="AJkytsJuZ1-eA44GaWmQ-66" vertex="1">
          <mxGeometry y="130" width="380" height="26" as="geometry" />
        </mxCell>
        <mxCell id="AJkytsJuZ1-eA44GaWmQ-122" value="- actualStartDate: Date" style="text;strokeColor=none;fillColor=none;align=left;verticalAlign=top;spacingLeft=4;spacingRight=4;overflow=hidden;rotatable=0;points=[[0,0.5],[1,0.5]];portConstraint=eastwest;" parent="AJkytsJuZ1-eA44GaWmQ-66" vertex="1">
          <mxGeometry y="156" width="380" height="26" as="geometry" />
        </mxCell>
        <mxCell id="AJkytsJuZ1-eA44GaWmQ-124" value="- actualEndDate: Date" style="text;strokeColor=none;fillColor=none;align=left;verticalAlign=top;spacingLeft=4;spacingRight=4;overflow=hidden;rotatable=0;points=[[0,0.5],[1,0.5]];portConstraint=eastwest;" parent="AJkytsJuZ1-eA44GaWmQ-66" vertex="1">
          <mxGeometry y="182" width="380" height="26" as="geometry" />
        </mxCell>
        <mxCell id="AJkytsJuZ1-eA44GaWmQ-125" value="- actualDuration: float" style="text;strokeColor=none;fillColor=none;align=left;verticalAlign=top;spacingLeft=4;spacingRight=4;overflow=hidden;rotatable=0;points=[[0,0.5],[1,0.5]];portConstraint=eastwest;" parent="AJkytsJuZ1-eA44GaWmQ-66" vertex="1">
          <mxGeometry y="208" width="380" height="26" as="geometry" />
        </mxCell>
        <mxCell id="AJkytsJuZ1-eA44GaWmQ-126" value="- effortCompleted: float" style="text;strokeColor=none;fillColor=none;align=left;verticalAlign=top;spacingLeft=4;spacingRight=4;overflow=hidden;rotatable=0;points=[[0,0.5],[1,0.5]];portConstraint=eastwest;" parent="AJkytsJuZ1-eA44GaWmQ-66" vertex="1">
          <mxGeometry y="234" width="380" height="26" as="geometry" />
        </mxCell>
        <mxCell id="AJkytsJuZ1-eA44GaWmQ-127" value="- actualEffort: float" style="text;strokeColor=none;fillColor=none;align=left;verticalAlign=top;spacingLeft=4;spacingRight=4;overflow=hidden;rotatable=0;points=[[0,0.5],[1,0.5]];portConstraint=eastwest;" parent="AJkytsJuZ1-eA44GaWmQ-66" vertex="1">
          <mxGeometry y="260" width="380" height="26" as="geometry" />
        </mxCell>
        <mxCell id="AJkytsJuZ1-eA44GaWmQ-128" value="- percentComplete: float" style="text;strokeColor=none;fillColor=none;align=left;verticalAlign=top;spacingLeft=4;spacingRight=4;overflow=hidden;rotatable=0;points=[[0,0.5],[1,0.5]];portConstraint=eastwest;" parent="AJkytsJuZ1-eA44GaWmQ-66" vertex="1">
          <mxGeometry y="286" width="380" height="26" as="geometry" />
        </mxCell>
        <mxCell id="AJkytsJuZ1-eA44GaWmQ-129" value="- deliverableID: int" style="text;strokeColor=none;fillColor=none;align=left;verticalAlign=top;spacingLeft=4;spacingRight=4;overflow=hidden;rotatable=0;points=[[0,0.5],[1,0.5]];portConstraint=eastwest;" parent="AJkytsJuZ1-eA44GaWmQ-66" vertex="1">
          <mxGeometry y="312" width="380" height="26" as="geometry" />
        </mxCell>
        <mxCell id="AJkytsJuZ1-eA44GaWmQ-130" value="- taskType: int" style="text;strokeColor=none;fillColor=none;align=left;verticalAlign=top;spacingLeft=4;spacingRight=4;overflow=hidden;rotatable=0;points=[[0,0.5],[1,0.5]];portConstraint=eastwest;" parent="AJkytsJuZ1-eA44GaWmQ-66" vertex="1">
          <mxGeometry y="338" width="380" height="26" as="geometry" />
        </mxCell>
        <mxCell id="AJkytsJuZ1-eA44GaWmQ-131" value="- parentID: int" style="text;strokeColor=none;fillColor=none;align=left;verticalAlign=top;spacingLeft=4;spacingRight=4;overflow=hidden;rotatable=0;points=[[0,0.5],[1,0.5]];portConstraint=eastwest;" parent="AJkytsJuZ1-eA44GaWmQ-66" vertex="1">
          <mxGeometry y="364" width="380" height="26" as="geometry" />
        </mxCell>
        <mxCell id="AJkytsJuZ1-eA44GaWmQ-137" value="" style="line;strokeWidth=1;fillColor=none;align=left;verticalAlign=middle;spacingTop=-1;spacingLeft=3;spacingRight=3;rotatable=0;labelPosition=right;points=[];portConstraint=eastwest;" parent="AJkytsJuZ1-eA44GaWmQ-66" vertex="1">
          <mxGeometry y="390" width="380" height="8" as="geometry" />
        </mxCell>
        <mxCell id="AJkytsJuZ1-eA44GaWmQ-134" value="+ getDescription(): String" style="text;strokeColor=none;fillColor=none;align=left;verticalAlign=top;spacingLeft=4;spacingRight=4;overflow=hidden;rotatable=0;points=[[0,0.5],[1,0.5]];portConstraint=eastwest;" parent="AJkytsJuZ1-eA44GaWmQ-66" vertex="1">
          <mxGeometry y="398" width="380" height="26" as="geometry" />
        </mxCell>
        <mxCell id="AJkytsJuZ1-eA44GaWmQ-133" value="+ setDescription(String): void" style="text;strokeColor=none;fillColor=none;align=left;verticalAlign=top;spacingLeft=4;spacingRight=4;overflow=hidden;rotatable=0;points=[[0,0.5],[1,0.5]];portConstraint=eastwest;" parent="AJkytsJuZ1-eA44GaWmQ-66" vertex="1">
          <mxGeometry y="424" width="380" height="26" as="geometry" />
        </mxCell>
        <mxCell id="AJkytsJuZ1-eA44GaWmQ-136" value="+ getExpectedStartDate(): Date" style="text;strokeColor=none;fillColor=none;align=left;verticalAlign=top;spacingLeft=4;spacingRight=4;overflow=hidden;rotatable=0;points=[[0,0.5],[1,0.5]];portConstraint=eastwest;" parent="AJkytsJuZ1-eA44GaWmQ-66" vertex="1">
          <mxGeometry y="450" width="380" height="26" as="geometry" />
        </mxCell>
        <mxCell id="AJkytsJuZ1-eA44GaWmQ-135" value="+ setExpectedStartDate(Date): void" style="text;strokeColor=none;fillColor=none;align=left;verticalAlign=top;spacingLeft=4;spacingRight=4;overflow=hidden;rotatable=0;points=[[0,0.5],[1,0.5]];portConstraint=eastwest;" parent="AJkytsJuZ1-eA44GaWmQ-66" vertex="1">
          <mxGeometry y="476" width="380" height="26" as="geometry" />
        </mxCell>
        <mxCell id="AJkytsJuZ1-eA44GaWmQ-139" value="+ getExpectedEndDate(): Date" style="text;strokeColor=none;fillColor=none;align=left;verticalAlign=top;spacingLeft=4;spacingRight=4;overflow=hidden;rotatable=0;points=[[0,0.5],[1,0.5]];portConstraint=eastwest;" parent="AJkytsJuZ1-eA44GaWmQ-66" vertex="1">
          <mxGeometry y="502" width="380" height="26" as="geometry" />
        </mxCell>
        <mxCell id="AJkytsJuZ1-eA44GaWmQ-140" value="+ setExpectedEndDate(Date): void" style="text;strokeColor=none;fillColor=none;align=left;verticalAlign=top;spacingLeft=4;spacingRight=4;overflow=hidden;rotatable=0;points=[[0,0.5],[1,0.5]];portConstraint=eastwest;" parent="AJkytsJuZ1-eA44GaWmQ-66" vertex="1">
          <mxGeometry y="528" width="380" height="26" as="geometry" />
        </mxCell>
        <mxCell id="AJkytsJuZ1-eA44GaWmQ-141" value="+ getExpectedDuration(): float" style="text;strokeColor=none;fillColor=none;align=left;verticalAlign=top;spacingLeft=4;spacingRight=4;overflow=hidden;rotatable=0;points=[[0,0.5],[1,0.5]];portConstraint=eastwest;" parent="AJkytsJuZ1-eA44GaWmQ-66" vertex="1">
          <mxGeometry y="554" width="380" height="26" as="geometry" />
        </mxCell>
        <mxCell id="AJkytsJuZ1-eA44GaWmQ-142" value="+ setExpectedDuration(float): void" style="text;strokeColor=none;fillColor=none;align=left;verticalAlign=top;spacingLeft=4;spacingRight=4;overflow=hidden;rotatable=0;points=[[0,0.5],[1,0.5]];portConstraint=eastwest;" parent="AJkytsJuZ1-eA44GaWmQ-66" vertex="1">
          <mxGeometry y="580" width="380" height="26" as="geometry" />
        </mxCell>
        <mxCell id="AJkytsJuZ1-eA44GaWmQ-143" value="+ getExpectedEffort(): float" style="text;strokeColor=none;fillColor=none;align=left;verticalAlign=top;spacingLeft=4;spacingRight=4;overflow=hidden;rotatable=0;points=[[0,0.5],[1,0.5]];portConstraint=eastwest;" parent="AJkytsJuZ1-eA44GaWmQ-66" vertex="1">
          <mxGeometry y="606" width="380" height="26" as="geometry" />
        </mxCell>
        <mxCell id="AJkytsJuZ1-eA44GaWmQ-144" value="+ setExpectedEffort(float): void" style="text;strokeColor=none;fillColor=none;align=left;verticalAlign=top;spacingLeft=4;spacingRight=4;overflow=hidden;rotatable=0;points=[[0,0.5],[1,0.5]];portConstraint=eastwest;" parent="AJkytsJuZ1-eA44GaWmQ-66" vertex="1">
          <mxGeometry y="632" width="380" height="26" as="geometry" />
        </mxCell>
        <mxCell id="AJkytsJuZ1-eA44GaWmQ-145" value="+ getActualStartDate(): Date" style="text;strokeColor=none;fillColor=none;align=left;verticalAlign=top;spacingLeft=4;spacingRight=4;overflow=hidden;rotatable=0;points=[[0,0.5],[1,0.5]];portConstraint=eastwest;" parent="AJkytsJuZ1-eA44GaWmQ-66" vertex="1">
          <mxGeometry y="658" width="380" height="26" as="geometry" />
        </mxCell>
        <mxCell id="AJkytsJuZ1-eA44GaWmQ-146" value="+ setActualStartDate(Date): void" style="text;strokeColor=none;fillColor=none;align=left;verticalAlign=top;spacingLeft=4;spacingRight=4;overflow=hidden;rotatable=0;points=[[0,0.5],[1,0.5]];portConstraint=eastwest;" parent="AJkytsJuZ1-eA44GaWmQ-66" vertex="1">
          <mxGeometry y="684" width="380" height="26" as="geometry" />
        </mxCell>
        <mxCell id="AJkytsJuZ1-eA44GaWmQ-147" value="+ getActualEndDate(): Date" style="text;strokeColor=none;fillColor=none;align=left;verticalAlign=top;spacingLeft=4;spacingRight=4;overflow=hidden;rotatable=0;points=[[0,0.5],[1,0.5]];portConstraint=eastwest;" parent="AJkytsJuZ1-eA44GaWmQ-66" vertex="1">
          <mxGeometry y="710" width="380" height="26" as="geometry" />
        </mxCell>
        <mxCell id="AJkytsJuZ1-eA44GaWmQ-148" value="+ setActualEndDate(Date): void" style="text;strokeColor=none;fillColor=none;align=left;verticalAlign=top;spacingLeft=4;spacingRight=4;overflow=hidden;rotatable=0;points=[[0,0.5],[1,0.5]];portConstraint=eastwest;" parent="AJkytsJuZ1-eA44GaWmQ-66" vertex="1">
          <mxGeometry y="736" width="380" height="26" as="geometry" />
        </mxCell>
        <mxCell id="AJkytsJuZ1-eA44GaWmQ-150" value="+ getActualDuration(): float" style="text;strokeColor=none;fillColor=none;align=left;verticalAlign=top;spacingLeft=4;spacingRight=4;overflow=hidden;rotatable=0;points=[[0,0.5],[1,0.5]];portConstraint=eastwest;" parent="AJkytsJuZ1-eA44GaWmQ-66" vertex="1">
          <mxGeometry y="762" width="380" height="26" as="geometry" />
        </mxCell>
        <mxCell id="AJkytsJuZ1-eA44GaWmQ-151" value="+ setActualDuration(float): void" style="text;strokeColor=none;fillColor=none;align=left;verticalAlign=top;spacingLeft=4;spacingRight=4;overflow=hidden;rotatable=0;points=[[0,0.5],[1,0.5]];portConstraint=eastwest;" parent="AJkytsJuZ1-eA44GaWmQ-66" vertex="1">
          <mxGeometry y="788" width="380" height="26" as="geometry" />
        </mxCell>
        <mxCell id="AJkytsJuZ1-eA44GaWmQ-152" value="+ getEffortCompleted(): float" style="text;strokeColor=none;fillColor=none;align=left;verticalAlign=top;spacingLeft=4;spacingRight=4;overflow=hidden;rotatable=0;points=[[0,0.5],[1,0.5]];portConstraint=eastwest;" parent="AJkytsJuZ1-eA44GaWmQ-66" vertex="1">
          <mxGeometry y="814" width="380" height="26" as="geometry" />
        </mxCell>
        <mxCell id="AJkytsJuZ1-eA44GaWmQ-153" value="+ setEffortCompleted(float): void" style="text;strokeColor=none;fillColor=none;align=left;verticalAlign=top;spacingLeft=4;spacingRight=4;overflow=hidden;rotatable=0;points=[[0,0.5],[1,0.5]];portConstraint=eastwest;" parent="AJkytsJuZ1-eA44GaWmQ-66" vertex="1">
          <mxGeometry y="840" width="380" height="26" as="geometry" />
        </mxCell>
        <mxCell id="AJkytsJuZ1-eA44GaWmQ-155" value="+ getActualEffort(): float" style="text;strokeColor=none;fillColor=none;align=left;verticalAlign=top;spacingLeft=4;spacingRight=4;overflow=hidden;rotatable=0;points=[[0,0.5],[1,0.5]];portConstraint=eastwest;" parent="AJkytsJuZ1-eA44GaWmQ-66" vertex="1">
          <mxGeometry y="866" width="380" height="26" as="geometry" />
        </mxCell>
        <mxCell id="AJkytsJuZ1-eA44GaWmQ-156" value="+ setActualEffort(float): void" style="text;strokeColor=none;fillColor=none;align=left;verticalAlign=top;spacingLeft=4;spacingRight=4;overflow=hidden;rotatable=0;points=[[0,0.5],[1,0.5]];portConstraint=eastwest;" parent="AJkytsJuZ1-eA44GaWmQ-66" vertex="1">
          <mxGeometry y="892" width="380" height="26" as="geometry" />
        </mxCell>
        <mxCell id="AJkytsJuZ1-eA44GaWmQ-157" value="+ getPercentComplete(): float" style="text;strokeColor=none;fillColor=none;align=left;verticalAlign=top;spacingLeft=4;spacingRight=4;overflow=hidden;rotatable=0;points=[[0,0.5],[1,0.5]];portConstraint=eastwest;" parent="AJkytsJuZ1-eA44GaWmQ-66" vertex="1">
          <mxGeometry y="918" width="380" height="26" as="geometry" />
        </mxCell>
        <mxCell id="AJkytsJuZ1-eA44GaWmQ-158" value="+ setPercentComplete(float): void" style="text;strokeColor=none;fillColor=none;align=left;verticalAlign=top;spacingLeft=4;spacingRight=4;overflow=hidden;rotatable=0;points=[[0,0.5],[1,0.5]];portConstraint=eastwest;" parent="AJkytsJuZ1-eA44GaWmQ-66" vertex="1">
          <mxGeometry y="944" width="380" height="26" as="geometry" />
        </mxCell>
        <mxCell id="AJkytsJuZ1-eA44GaWmQ-159" value="+ getConnectedDeliverableID(): int" style="text;strokeColor=none;fillColor=none;align=left;verticalAlign=top;spacingLeft=4;spacingRight=4;overflow=hidden;rotatable=0;points=[[0,0.5],[1,0.5]];portConstraint=eastwest;" parent="AJkytsJuZ1-eA44GaWmQ-66" vertex="1">
          <mxGeometry y="970" width="380" height="26" as="geometry" />
        </mxCell>
        <mxCell id="AJkytsJuZ1-eA44GaWmQ-160" value="+ setConnectedDeliverableID(int): void" style="text;strokeColor=none;fillColor=none;align=left;verticalAlign=top;spacingLeft=4;spacingRight=4;overflow=hidden;rotatable=0;points=[[0,0.5],[1,0.5]];portConstraint=eastwest;" parent="AJkytsJuZ1-eA44GaWmQ-66" vertex="1">
          <mxGeometry y="996" width="380" height="26" as="geometry" />
        </mxCell>
        <mxCell id="AJkytsJuZ1-eA44GaWmQ-161" value="+ getTaskType(): int" style="text;strokeColor=none;fillColor=none;align=left;verticalAlign=top;spacingLeft=4;spacingRight=4;overflow=hidden;rotatable=0;points=[[0,0.5],[1,0.5]];portConstraint=eastwest;" parent="AJkytsJuZ1-eA44GaWmQ-66" vertex="1">
          <mxGeometry y="1022" width="380" height="26" as="geometry" />
        </mxCell>
        <mxCell id="AJkytsJuZ1-eA44GaWmQ-162" value="+ setTaskType(int): void" style="text;strokeColor=none;fillColor=none;align=left;verticalAlign=top;spacingLeft=4;spacingRight=4;overflow=hidden;rotatable=0;points=[[0,0.5],[1,0.5]];portConstraint=eastwest;" parent="AJkytsJuZ1-eA44GaWmQ-66" vertex="1">
          <mxGeometry y="1048" width="380" height="26" as="geometry" />
        </mxCell>
        <mxCell id="AJkytsJuZ1-eA44GaWmQ-163" value="+ getParentID(): int" style="text;strokeColor=none;fillColor=none;align=left;verticalAlign=top;spacingLeft=4;spacingRight=4;overflow=hidden;rotatable=0;points=[[0,0.5],[1,0.5]];portConstraint=eastwest;" parent="AJkytsJuZ1-eA44GaWmQ-66" vertex="1">
          <mxGeometry y="1074" width="380" height="26" as="geometry" />
        </mxCell>
        <mxCell id="AJkytsJuZ1-eA44GaWmQ-164" value="+ setParentID(int): void" style="text;strokeColor=none;fillColor=none;align=left;verticalAlign=top;spacingLeft=4;spacingRight=4;overflow=hidden;rotatable=0;points=[[0,0.5],[1,0.5]];portConstraint=eastwest;" parent="AJkytsJuZ1-eA44GaWmQ-66" vertex="1">
          <mxGeometry y="1100" width="380" height="26" as="geometry" />
        </mxCell>
        <mxCell id="AJkytsJuZ1-eA44GaWmQ-166" value="+ getTasks(): Task[]" style="text;strokeColor=none;fillColor=none;align=left;verticalAlign=top;spacingLeft=4;spacingRight=4;overflow=hidden;rotatable=0;points=[[0,0.5],[1,0.5]];portConstraint=eastwest;fontStyle=4" parent="AJkytsJuZ1-eA44GaWmQ-66" vertex="1">
          <mxGeometry y="1126" width="380" height="26" as="geometry" />
        </mxCell>
        <mxCell id="AJkytsJuZ1-eA44GaWmQ-165" value="+ getTask(int): Task" style="text;strokeColor=none;fillColor=none;align=left;verticalAlign=top;spacingLeft=4;spacingRight=4;overflow=hidden;rotatable=0;points=[[0,0.5],[1,0.5]];portConstraint=eastwest;fontStyle=4" parent="AJkytsJuZ1-eA44GaWmQ-66" vertex="1">
          <mxGeometry y="1152" width="380" height="26" as="geometry" />
        </mxCell>
        <mxCell id="AJkytsJuZ1-eA44GaWmQ-167" value="+ createTask(Task): boolean" style="text;strokeColor=none;fillColor=none;align=left;verticalAlign=top;spacingLeft=4;spacingRight=4;overflow=hidden;rotatable=0;points=[[0,0.5],[1,0.5]];portConstraint=eastwest;fontStyle=4" parent="AJkytsJuZ1-eA44GaWmQ-66" vertex="1">
          <mxGeometry y="1178" width="380" height="26" as="geometry" />
        </mxCell>
        <mxCell id="AJkytsJuZ1-eA44GaWmQ-170" value="+ deleteTask(int): boolean" style="text;strokeColor=none;fillColor=none;align=left;verticalAlign=top;spacingLeft=4;spacingRight=4;overflow=hidden;rotatable=0;points=[[0,0.5],[1,0.5]];portConstraint=eastwest;fontStyle=4" parent="AJkytsJuZ1-eA44GaWmQ-66" vertex="1">
          <mxGeometry y="1204" width="380" height="26" as="geometry" />
        </mxCell>
        <mxCell id="AJkytsJuZ1-eA44GaWmQ-169" value="+ saveTask(Task, int[], int[], int[], int[]): boolean" style="text;strokeColor=none;fillColor=none;align=left;verticalAlign=top;spacingLeft=4;spacingRight=4;overflow=hidden;rotatable=0;points=[[0,0.5],[1,0.5]];portConstraint=eastwest;fontStyle=4" parent="AJkytsJuZ1-eA44GaWmQ-66" vertex="1">
          <mxGeometry y="1230" width="380" height="26" as="geometry" />
        </mxCell>
        <mxCell id="AJkytsJuZ1-eA44GaWmQ-168" value="+ updateTask(Task): boolean" style="text;strokeColor=none;fillColor=none;align=left;verticalAlign=top;spacingLeft=4;spacingRight=4;overflow=hidden;rotatable=0;points=[[0,0.5],[1,0.5]];portConstraint=eastwest;fontStyle=4" parent="AJkytsJuZ1-eA44GaWmQ-66" vertex="1">
          <mxGeometry y="1256" width="380" height="26" as="geometry" />
        </mxCell>
        <mxCell id="AJkytsJuZ1-eA44GaWmQ-171" value="+ addAssociatedIssues(int,int[]): boolean" style="text;strokeColor=none;fillColor=none;align=left;verticalAlign=top;spacingLeft=4;spacingRight=4;overflow=hidden;rotatable=0;points=[[0,0.5],[1,0.5]];portConstraint=eastwest;fontStyle=4" parent="AJkytsJuZ1-eA44GaWmQ-66" vertex="1">
          <mxGeometry y="1282" width="380" height="26" as="geometry" />
        </mxCell>
        <mxCell id="AJkytsJuZ1-eA44GaWmQ-172" value="+ addAssociatedResources(int,int[]): boolean" style="text;strokeColor=none;fillColor=none;align=left;verticalAlign=top;spacingLeft=4;spacingRight=4;overflow=hidden;rotatable=0;points=[[0,0.5],[1,0.5]];portConstraint=eastwest;fontStyle=4" parent="AJkytsJuZ1-eA44GaWmQ-66" vertex="1">
          <mxGeometry y="1308" width="380" height="26" as="geometry" />
        </mxCell>
        <mxCell id="AJkytsJuZ1-eA44GaWmQ-173" value="+ addPredecessorsTasks(int,int[]): boolean" style="text;strokeColor=none;fillColor=none;align=left;verticalAlign=top;spacingLeft=4;spacingRight=4;overflow=hidden;rotatable=0;points=[[0,0.5],[1,0.5]];portConstraint=eastwest;fontStyle=4" parent="AJkytsJuZ1-eA44GaWmQ-66" vertex="1">
          <mxGeometry y="1334" width="380" height="26" as="geometry" />
        </mxCell>
        <mxCell id="AJkytsJuZ1-eA44GaWmQ-174" value="+ addSuccessorsTasks(int,int[]): boolean" style="text;strokeColor=none;fillColor=none;align=left;verticalAlign=top;spacingLeft=4;spacingRight=4;overflow=hidden;rotatable=0;points=[[0,0.5],[1,0.5]];portConstraint=eastwest;fontStyle=4" parent="AJkytsJuZ1-eA44GaWmQ-66" vertex="1">
          <mxGeometry y="1360" width="380" height="26" as="geometry" />
        </mxCell>
        <mxCell id="AJkytsJuZ1-eA44GaWmQ-175" value="+ updateAssociatedIssues(int,int[]): boolean" style="text;strokeColor=none;fillColor=none;align=left;verticalAlign=top;spacingLeft=4;spacingRight=4;overflow=hidden;rotatable=0;points=[[0,0.5],[1,0.5]];portConstraint=eastwest;fontStyle=4" parent="AJkytsJuZ1-eA44GaWmQ-66" vertex="1">
          <mxGeometry y="1386" width="380" height="26" as="geometry" />
        </mxCell>
        <mxCell id="AJkytsJuZ1-eA44GaWmQ-176" value="+ updateAssociatedResources(int,int[]): boolean" style="text;strokeColor=none;fillColor=none;align=left;verticalAlign=top;spacingLeft=4;spacingRight=4;overflow=hidden;rotatable=0;points=[[0,0.5],[1,0.5]];portConstraint=eastwest;fontStyle=4" parent="AJkytsJuZ1-eA44GaWmQ-66" vertex="1">
          <mxGeometry y="1412" width="380" height="26" as="geometry" />
        </mxCell>
        <mxCell id="AJkytsJuZ1-eA44GaWmQ-177" value="+ updatePredecessorsTasks(int,int[]): boolean" style="text;strokeColor=none;fillColor=none;align=left;verticalAlign=top;spacingLeft=4;spacingRight=4;overflow=hidden;rotatable=0;points=[[0,0.5],[1,0.5]];portConstraint=eastwest;fontStyle=4" parent="AJkytsJuZ1-eA44GaWmQ-66" vertex="1">
          <mxGeometry y="1438" width="380" height="26" as="geometry" />
        </mxCell>
        <mxCell id="AJkytsJuZ1-eA44GaWmQ-178" value="+ updateSuccessorsTasks(int,int[]): boolean" style="text;strokeColor=none;fillColor=none;align=left;verticalAlign=top;spacingLeft=4;spacingRight=4;overflow=hidden;rotatable=0;points=[[0,0.5],[1,0.5]];portConstraint=eastwest;fontStyle=4" parent="AJkytsJuZ1-eA44GaWmQ-66" vertex="1">
          <mxGeometry y="1464" width="380" height="26" as="geometry" />
        </mxCell>
      </root>
    </mxGraphModel>
  </diagram>
</mxfile>
